<svg xmlns="http://www.w3.org/2000/svg" version="1.1" viewBox="-1 -3.5 24.5 7" glyphtype="Double-Stranded Nucleic Acid" soterms="SBO:0000251">

<g transform="translate(0,25)"><rect class="bounding-box" id="bounding-box" x="0" y="-2.5,0" width="22.5" height="5.0" style="opacity:0.5;fill:none;fill-opacity:1;stroke:#999999;stroke-width:0.5;stroke-miterlimit:4;stroke-dasharray:1, 0.5;stroke-dashoffset:0;stroke-opacity:1" />

    <path id="dsNA-line1" style="fill:none;stroke:black;stroke-width:1pt;stroke-linejoin:round;stroke-linecap:round" class="unfilled-path" d="M0,0 C1.0125,2.5 2.3625,2.5 3.375,0 S5.7375,-2.5 6.75,0            C7.762499999999999,2.5 9.112499999999999,2.5 10.124999999999998,0 S12.487499999999999,-2.5 13.5,0            C14.512500000000001,2.5 15.862499999999999,2.5 16.875,0 S19.2375,-2.5 20.249999999999996,0" />

<path class="baseline" id="baseline" d="M0,0 L0,0" style="opacity:1;fill:none;fill-opacity:1;stroke:#b3b3b3;stroke-width:0.49999994;stroke-linecap:round;stroke-linejoin:miter;stroke-miterlimit:4;stroke-dasharray:1,0.5;stroke-dashoffset:0;stroke-opacity:1" y="0" />

<path id="dsNA-line2" style="fill:none;stroke:black;stroke-width:1pt;stroke-linejoin:round;stroke-linecap:round" class="unfilled-path" d="M2.25,0 C3.2625,2.5 4.612500000000001,2.5 5.625,0 S7.9875,-2.5 9.0,0            C10.0125,2.5 11.3625,2.5 12.374999999999998,0 S14.737499999999999,-2.5 15.749999999999998,0            C16.7625,2.5 18.112499999999997,2.5 19.125,0 S21.4875,-2.5 22.499999999999996,0" />

</g></svg>