<svg xmlns="http://www.w3.org/2000/svg" version="1.1" width="100" height="100" glyphtype="RNA Location" soterms="SO:0001236,SO:0000699">

    <g transform="translate(0,25)"><rect class="bounding-box" id="bounding-box" x="0" y="-16" width="6" height="16" style="opacity:0.5;fill:none;fill-opacity:1;stroke:#999999;stroke-width:0.5;stroke-miterlimit:4;stroke-dasharray:1, 0.5;stroke-dashoffset:0;stroke-opacity:1" />

    <path style="fill:none;stroke:#000000;stroke-width:2;stroke-linecap:round;stroke-linejoin:round;stroke-miterlimit:4;stroke-dasharray:none" class="unfilled-path" d="m 3.00000000000000, -26/3 c 13/6,-13/6 -13/6,-13/6 0,-13/3" />

    <path class="unfilled-path" style="fill:none;stroke:#000000;stroke-width:2;stroke-linecap:round;stroke-linejoin:round;stroke-miterlimit:4;stroke-dasharray:none" d="m 3.00000000000000, 0 c 13/6,-13/6 -13/6,-13/6 0,-13/3" />


    <path class="baseline" id="baseline" d="M0,0 L6,0" style="opacity:1;fill:none;fill-opacity:1;stroke:#b3b3b3;stroke-width:0.49999994;stroke-linecap:round;stroke-linejoin:miter;stroke-miterlimit:4;stroke-dasharray:1,0.5;stroke-dashoffset:0;stroke-opacity:1" y="0" />


    <path class="filled-path" id="location-top-path" d="M0,-13.0000000000000 C0,-17.0000000000000 6,-17.0000000000000 6,-13.0000000000000 C6,-9.00000000000000 0,-9.00000000000000 0,-13.0000000000000 Z" style="fill:rgb(230,230,230);fill-rule:nonzero;stroke:black;stroke-width:1pt;stroke-linejoin:miter;stroke-linecap:butt" />

<path class="unfilled-path" style="fill:none;stroke:#000000;stroke-width:2;stroke-linecap:round;stroke-linejoin:round;stroke-miterlimit:4;stroke-dasharray:none" d="m 3.00000000000000, -13/3 c 13/6,-13/6 -13/6,-13/6 0,-13/3" />

    </g></svg>